{
    "asset" : {
        "generator" : "Khronos glTF Blender I/O v1.7.33",
        "version" : "2.0"
    },
    "scene" : 0,
    "scenes" : [
        {
            "name" : "Scene",
            "nodes" : [
                0
            ]
        }
    ],
    "nodes" : [
        {
            "mesh" : 0,
            "name" : "Phormium_tenax_A001"
        }
    ],
    "materials" : [
        {
            "doubleSided" : true,
            "name" : "leaf B.002",
            "normalTexture" : {
                "index" : 0
            },
            "pbrMetallicRoughness" : {
                "baseColorTexture" : {
                    "index" : 1
                },
                "metallicFactor" : 0,
                "roughnessFactor" : 0.8114382028579712
            }
        }
    ],
    "meshes" : [
        {
            "name" : "Phormium_tenax_A001.002",
            "primitives" : [
                {
                    "attributes" : {
                        "POSITION" : 0,
                        "NORMAL" : 1,
                        "TEXCOORD_0" : 2
                    },
                    "indices" : 3,
                    "material" : 0
                }
            ]
        }
    ],
    "textures" : [
        {
            "sampler" : 0,
            "source" : 0
        },
        {
            "sampler" : 0,
            "source" : 1
        }
    ],
    "images" : [
        {
            "mimeType" : "image/jpeg",
            "name" : "phormium_t_leaf_1_4_normal",
            "uri" : "maps/phormium_t_leaf_1_4_normal.jpg"
        },
        {
            "mimeType" : "image/jpeg",
            "name" : "phormium_t_leaf_1_1_diffuse_3",
            "uri" : "maps/phormium_t_leaf_1_1_diffuse_3.jpg"
        }
    ],
    "accessors" : [
        {
            "bufferView" : 0,
            "componentType" : 5126,
            "count" : 17327,
            "max" : [
                5.887551784515381,
                7.535007953643799,
                6.073738098144531
            ],
            "min" : [
                -5.820824146270752,
                -0.048278000205755234,
                -5.833374977111816
            ],
            "type" : "VEC3"
        },
        {
            "bufferView" : 1,
            "componentType" : 5126,
            "count" : 17327,
            "type" : "VEC3"
        },
        {
            "bufferView" : 2,
            "componentType" : 5126,
            "count" : 17327,
            "type" : "VEC2"
        },
        {
            "bufferView" : 3,
            "componentType" : 5123,
            "count" : 85695,
            "type" : "SCALAR"
        }
    ],
    "bufferViews" : [
        {
            "buffer" : 0,
            "byteLength" : 207924,
            "byteOffset" : 0
        },
        {
            "buffer" : 0,
            "byteLength" : 207924,
            "byteOffset" : 207924
        },
        {
            "buffer" : 0,
            "byteLength" : 138616,
            "byteOffset" : 415848
        },
        {
            "buffer" : 0,
            "byteLength" : 171390,
            "byteOffset" : 554464
        }
    ],
    "samplers" : [
        {
            "magFilter" : 9729,
            "minFilter" : 9987
        }
    ],
    "buffers" : [
        {
            "byteLength" : 725856,
            "uri" : "flower.bin"
        }
    ]
}
